<svg xmlns="http://www.w3.org/2000/svg" viewBox="0 0 32 32" width="32" height="32">
  <defs>
    <linearGradient id="bg" x1="0%" y1="0%" x2="100%" y2="100%">
      <stop offset="0%" style="stop-color:#0a84ff"/>
      <stop offset="100%" style="stop-color:#5E5CE6"/>
    </linearGradient>
  </defs>
  <rect x="0" y="0" width="32" height="32" rx="7" ry="7" fill="url(#bg)"/>
  <!-- Simplified pie chart -->
  <path d="M16 6 L16 4 A12 12 0 0 1 27 20 L24 18 A8 8 0 0 0 16 6Z" fill="#ffffff" opacity="0.9"/>
  <path d="M16 6 L24 18 A8 8 0 0 1 8 20 L10 18 A6 6 0 0 0 16 6Z" fill="#ffffff" opacity="0.5"/>
  <!-- Small arrow up -->
  <path d="M18 22 L18 16 L21 16 L16 11 L11 16 L14 16 L14 22 Z" fill="#0a84ff"/>
</svg>
